<svg xmlns="http://www.w3.org/2000/svg" xml:space="preserve" width="512" height="512" style="cursor:default" viewBox="0 0 96.983 132.292"><g transform="translate(-56.568 -82.29)"><path d="M124.878 83.82h-60.91a5.86 5.86 0 0 0-5.87 5.87v117.496a5.855 5.855 0 0 0 5.87 5.866h82.182a5.855 5.855 0 0 0 5.87-5.866v-92.55z" style="display:inline;fill:#111827;stroke:#aeb9d0;stroke-width:3.06006;stroke-dasharray:none;stroke-opacity:1"/><circle cx="84.331" cy="128.904" r="6.653" style="fill:#84cc16;fill-opacity:1;stroke-width:2.13082"/><circle cx="105.059" cy="128.904" r="6.653" style="fill:#fff;fill-opacity:1;stroke-width:2.13082"/><circle cx="125.786" cy="128.904" r="6.653" style="fill:#84cc16;fill-opacity:1;stroke-width:2.13082"/><circle cx="84.331" cy="148.438" r="6.653" style="fill:#fff;fill-opacity:1;stroke-width:2.13082"/><circle cx="105.059" cy="148.438" r="6.653" style="display:inline;fill:#84cc16;fill-opacity:1;stroke-width:2.13082"/><circle cx="125.786" cy="148.438" r="6.653" style="fill:#fff;fill-opacity:1;stroke-width:2.13082"/><circle cx="84.331" cy="167.971" r="6.653" style="fill:#84cc16;fill-opacity:1;stroke-width:2.13082"/><circle cx="105.059" cy="167.971" r="6.653" style="fill:#fff;fill-opacity:1;stroke-width:2.13082"/><circle cx="125.786" cy="167.971" r="6.653" style="fill:#84cc16;fill-opacity:1;stroke-width:2.13082"/><path d="M119.124 161.326h13.287v13.287h-13.287z" style="fill:#84cc16;fill-opacity:1;stroke:none;stroke-width:3.04496;stroke-opacity:1"/></g></svg>